<svg xmlns="http://www.w3.org/2000/svg" xmlns:xlink="http://www.w3.org/1999/xlink" version="1.1" id="Layer_1" x="0px" y="0px" width="100px" height="100px" viewBox="0 0 100 100" enable-background="new 0 0 100 100" xml:space="preserve">
<path d="M74.994,63.184c-4.058,0-7.906,2.148-10.05,5.584c-2.176,3.487-2.359,7.979-0.47,11.63c1.85,3.575,5.494,6.027,9.514,6.367  c4.068,0.344,8.098-1.485,10.524-4.76c2.646-3.571,3.045-8.463,1.002-12.412C83.501,65.701,79.384,63.184,74.994,63.184z   M74.994,83.212c-4.101,0-7.678-3.156-8.171-7.224c-0.493-4.076,2.222-8,6.219-8.975c4.004-0.976,8.227,1.266,9.666,5.119  c1.443,3.863-0.308,8.309-3.977,10.183C77.578,82.904,76.29,83.212,74.994,83.212z M74.994,69.693c-2.891,0-5.312,2.416-5.312,5.303  c0,2.886,2.421,5.302,5.312,5.302s5.312-2.416,5.312-5.302C80.306,72.11,77.886,69.693,74.994,69.693z M74.994,76.703  c-2.205,0-2.205-3.414,0-3.414S77.199,76.703,74.994,76.703z M89.618,58.018c0.972-0.701,2.041-1.233,2.817-2.175  c0.926-1.124,1.123-2.497,1.56-3.835C94.398,50.766,95,49.63,95,48.29c0-1.34-0.602-2.476-1.005-3.716  c-0.402-1.238-0.588-2.518-1.375-3.598c-0.787-1.08-1.947-1.648-3.001-2.413c-1.056-0.768-1.953-1.694-3.23-2.108  c-1.246-0.403-2.524-0.204-3.805-0.2c1.161-0.342,2.131-1.039,3.206-1.564c1.035-0.506,2.214-0.645,3.279-1.082  c2.397-0.984,3.083-3.019,3.76-5.31c0.68-2.302,2.556-3.999,2.091-6.594c-0.19-1.058-0.702-2.004-1.232-2.926  c-0.632-1.101-0.914-2.217-1.298-3.413c-0.773-2.408-2.421-3.609-4.793-4.271c-1.135-0.317-2.079-0.744-3.107-1.319  c-1.049-0.587-2.177-1.072-3.401-1.072c-1.135,0-2.198,0.416-3.181,0.95c-1.108,0.601-2.108,1.101-3.327,1.441  c-2.371,0.661-4.018,1.862-4.792,4.269c-0.352,1.094-0.588,2.162-1.162,3.17c-1.524-1.986-3.719-3.237-5.849-4.47  c-2.352-1.362-4.191-3.057-6.165-4.901c-1.83-1.709-3.867-3.213-6.379-3.698c-2.755-0.531-5.535,0.073-8.294,0.225  c-2.724,0.15-5.374-0.55-8.083-0.678c-2.724-0.128-5.187,0.573-7.403,2.16c-2.085,1.493-3.769,3.492-5.934,4.875  c-1.065,0.681-2.202,1.243-3.312,1.845c-0.829,0.45-2.031,0.905-2.566,1.732c-0.463,0.716-0.34,1.702,0.281,2.285L30.49,32.447  l-18.523-8.729c-1.275-0.609-2.347,0.361-2.606,1.564c-0.513,2.386-1.413,4.46-2.471,6.649c-1.024,2.118-1.926,4.36-1.888,6.752  c0.037,2.358,0.943,4.562,1.892,6.682c1.033,2.305,1.698,4.511,2.145,6.994c0.404,2.242,0.872,4.532,2.139,6.469  c1.229,1.88,3.089,3.172,4.992,4.299c2.134,1.264,4.123,2.469,5.923,4.197c-1.149,0.224-2.15,0.816-3.155,1.384  c-1.063,0.601-2.22,0.812-3.362,1.206c-2.403,0.828-3.448,2.601-4.095,4.938c-0.623,2.244-2.471,4.125-2.32,6.564  c0.069,1.111,0.526,2.134,1.064,3.092c0.621,1.106,1.039,2.126,1.39,3.343c0.689,2.39,2.047,3.896,4.455,4.62  c1.124,0.338,2.146,0.632,3.173,1.22c1.007,0.578,2.049,1.131,3.22,1.274c2.524,0.307,4.311-1.57,6.589-2.209  c2.322-0.652,4.239-1.518,5.142-3.921c0.384-1.023,0.54-2.129,1.035-3.108c0.226,1.267,0.942,2.271,1.747,3.242  c0.814,0.984,1.379,2.165,2.277,3.079c1.024,1.043,2.349,1.428,3.721,1.792c1.339,0.355,2.555,1.067,3.964,1.153  c1.352,0.082,2.538-0.452,3.775-0.905c1.31-0.48,2.7-0.619,3.861-1.462c1.083-0.786,1.649-1.945,2.418-2.996  c0.79-1.081,1.728-1.992,2.131-3.308c0.927,2.455,2.682,3.954,5.148,4.765c1.102,0.363,2.247,0.596,3.334,1.002  c1.156,0.432,2.185,1.145,3.271,1.719c2.244,1.184,4.573,1.566,6.976,0.595c1.044-0.422,2.003-1.011,2.981-1.56  c1.148-0.645,2.334-1.021,3.598-1.372c2.306-0.64,4.5-1.531,5.762-3.694c1.21-2.074,1.346-4.554,2.497-6.653  c1.158-2.111,2.518-4.18,2.283-6.703c-0.23-2.473-1.867-4.291-2.784-6.5c-0.623-1.502-0.857-3.133-1.496-4.632  c-0.671-1.574-1.757-2.835-3.289-3.626C88.211,59.201,88.873,58.562,89.618,58.018C89.846,57.852,89.394,58.181,89.618,58.018z   M56.84,69.745c-0.584,1.015-1.214,2.125-1.568,3.37c-0.758-0.787-1.695-1.253-2.733-1.558c2.078-1.186,3.728-2.929,5.548-4.451  C57.786,68.048,57.333,68.891,56.84,69.745C56.256,70.761,57.212,69.101,56.84,69.745z M70.769,53.146  c0.091-0.423,0.184-0.826,0.277-1.231c0.425,1.242,0.598,2.538,1.377,3.637c-0.941,0.348-1.804,0.827-2.607,1.288  C70.229,55.632,70.503,54.379,70.769,53.146C70.86,52.724,70.503,54.379,70.769,53.146z M75.194,38.737  c-0.118-1.728-0.661-3.345-1.284-4.841c0.931,0.293,1.892,0.475,2.758,0.94c0.956,0.514,1.865,1.106,2.916,1.417  C77.756,36.505,76.644,37.766,75.194,38.737C75.076,37.009,75.281,38.679,75.194,38.737z M71.611,20.572  c0.607-1.055,1.04-2.108,1.366-3.28c0.344-1.241,0.612-2.11,1.913-2.536c1.159-0.38,2.329-0.623,3.416-1.2  c0.939-0.498,2.102-1.504,3.238-1.185c1.121,0.315,2.063,1.126,3.135,1.57c1.116,0.461,2.55,0.528,3.541,1.24  c0.83,0.597,0.946,2.062,1.227,2.964c0.395,1.267,1.153,2.306,1.696,3.501c0.509,1.12-0.009,1.984-0.578,2.971  c-0.664,1.154-1.089,2.307-1.45,3.584c-0.323,1.143-0.652,1.846-1.827,2.231c-1.26,0.413-2.502,0.69-3.674,1.34  c-0.867,0.481-1.926,1.342-2.981,1.046c-1.22-0.342-2.235-1.241-3.424-1.683c-1.035-0.385-2.342-0.474-3.252-1.128  c-0.895-0.643-0.993-2.284-1.32-3.251c-0.39-1.152-1.105-2.116-1.603-3.213C70.524,22.423,71.042,21.559,71.611,20.572  C71.894,20.08,71.182,21.316,71.611,20.572z M19.119,31.064l4.446,2.095c-3.063,8.254,0.648,17.717,8.467,21.741  c7.407,3.812,16.717,1.749,21.867-4.769c5.142-6.507,4.94-15.992-0.459-22.283c-5.855-6.823-16.211-8.101-23.568-2.894  c-0.401,0.284-0.791,0.585-1.167,0.902l-3.597-3.358c6.916-6.158,17.217-7.438,25.415-3.129c7.135,3.75,11.833,11.232,12.049,19.285  c0.218,8.107-4.099,15.86-11.088,19.986c-7.671,4.528-17.638,4.011-24.798-1.298C18.608,51.354,15.414,40.431,19.119,31.064z   M39.345,40.596c1.799,0.845,3.462-1.571,1.999-2.939l-9.976-9.314c7.233-5.715,18.194-2.845,21.672,5.66  c3.201,7.826-1.536,16.944-9.769,18.875c-4.723,1.108-9.789-0.367-13.185-3.82c-3.695-3.756-4.963-9.375-3.242-14.354L39.345,40.596  z M18.954,60.586c-2.531-1.462-4.808-2.9-5.699-5.833c-0.911-2.999-1.051-6.115-2.274-9.039c-1.167-2.789-2.914-5.642-2.186-8.776  c0.737-3.171,2.8-5.867,3.641-9.024l3.419,1.611c-3.839,9.451-1.651,20.528,5.433,27.851c6.441,6.659,16.167,9.438,25.161,7.173  c7.751-1.952,14.326-7.523,17.541-14.826c3.309-7.517,2.813-16.378-1.308-23.481c-3.598-6.201-9.731-10.761-16.73-12.375  c-8.289-1.91-17.204,0.436-23.483,6.166l-3.317-3.097c2.308-1.242,4.424-2.525,6.383-4.28c1.8-1.612,3.684-3.569,6.182-3.967  c2.613-0.416,5.308,0.398,7.911,0.579c2.751,0.191,5.446-0.43,8.189-0.421c2.639,0.008,4.528,1.247,6.397,3  c1.983,1.86,3.859,3.627,6.22,5.014c2.07,1.216,4.543,2.356,5.789,4.52c1.265,2.195,1.368,4.913,1.906,7.337  c0.612,2.758,2.028,5.16,2.94,7.809c0.961,2.791,0.347,5.165-0.892,7.753c-1.229,2.568-2.256,5.006-2.861,7.798  c-0.542,2.502-1.012,5.154-3.061,6.901c-1.443,0.477-2.803,1.171-3.789,2.355c-1.708,0.909-3.343,1.87-4.824,3.124  c-1.545,1.308-2.96,2.827-4.705,3.877c-3.441,2.071-7.622,0.361-11.343,0.296c-3.681-0.053-7.905,1.481-11.249-0.645  c-1.656-1.053-2.981-2.55-4.409-3.874C22.419,62.708,20.738,61.618,18.954,60.586C17.093,59.511,20.055,61.223,18.954,60.586z   M32.541,83.136c-0.608,1.054-1.04,2.107-1.366,3.279c-0.344,1.241-0.612,2.11-1.913,2.537c-1.159,0.38-2.329,0.622-3.417,1.199  c-0.939,0.498-2.101,1.504-3.238,1.185c-1.121-0.315-2.063-1.127-3.135-1.57c-1.116-0.462-2.55-0.528-3.541-1.24  c-0.83-0.597-0.946-2.062-1.227-2.964c-0.395-1.267-1.154-2.306-1.696-3.501c-0.509-1.12,0.009-1.984,0.578-2.971  c0.665-1.154,1.089-2.307,1.45-3.585c0.323-1.142,0.651-1.845,1.826-2.23c1.26-0.414,2.503-0.69,3.675-1.34  c0.867-0.481,1.925-1.342,2.981-1.046c1.219,0.342,2.235,1.24,3.424,1.683c1.034,0.385,2.342,0.474,3.252,1.128  c0.895,0.644,0.993,2.283,1.321,3.251c0.39,1.151,1.105,2.115,1.603,3.213C33.626,81.284,33.109,82.148,32.541,83.136  C32.257,83.627,32.969,82.391,32.541,83.136z M37.502,75.491c-0.536,0.735-1.167,1.386-1.627,2.178  c-0.417-0.738-0.83-1.444-1.071-2.262c-0.277-0.936-0.497-1.892-0.942-2.768c2.146-0.138,4.281-0.518,6.436-0.376  C38.991,73.044,38.366,74.302,37.502,75.491C37.339,75.714,37.668,75.261,37.502,75.491z M55.731,83.654  c0.078,1.324-0.141,1.999-0.989,3.022c-0.712,0.858-1.225,1.863-1.943,2.708c-0.698,0.822-1.975,0.879-2.944,1.193  c-1.282,0.418-2.29,1.081-3.646,0.592c-1.159-0.418-2.328-0.743-3.493-1.134c-1.097-0.368-1.532-1.411-2.148-2.304  c-0.563-0.817-1.632-1.639-1.804-2.652c-0.198-1.161,0.066-2.433-0.004-3.615c-0.078-1.324,0.142-1.999,0.99-3.022  c0.712-0.858,1.225-1.862,1.942-2.707c0.697-0.822,1.975-0.88,2.943-1.193c1.282-0.418,2.29-1.081,3.646-0.592  c1.159,0.418,2.329,0.743,3.494,1.134c1.097,0.368,1.531,1.411,2.147,2.304c0.563,0.815,1.632,1.64,1.804,2.651  C55.924,81.201,55.659,82.471,55.731,83.654C55.768,84.294,55.709,83.29,55.731,83.654z M88.861,69.296  c0.95,2.288,3.256,4.515,2.236,7.145c-0.472,1.216-1.241,2.296-1.832,3.454c-0.643,1.259-0.989,2.61-1.376,3.961  c-0.293,1.021-0.621,2.208-1.474,2.916c-0.964,0.8-2.328,1.06-3.504,1.387c-1.259,0.35-2.454,0.782-3.601,1.413  c-1.192,0.655-2.392,1.533-3.756,1.781c-1.236,0.224-2.403-0.387-3.448-0.971c-1.235-0.691-2.431-1.406-3.783-1.851  c-2.324-0.765-4.886-0.929-5.849-3.51c-0.444-1.19-0.686-2.445-1.109-3.642c-0.474-1.34-1.239-2.523-1.913-3.765  c-0.578-1.065-1.064-2.2-0.746-3.425c0.351-1.352,1.222-2.528,1.872-3.745c1.067-2.001,1.197-4.386,2.322-6.332  c1.055-0.569,2.106-1.172,3.073-1.9c1.96-0.573,3.744-1.166,5.524-2.187c1.838-1.054,3.397-1.805,5.443-0.837  c0.492,0.361,1.041,0.699,1.703,0.921c1.172,0.672,2.35,1.231,3.648,1.614c1.163,0.343,2.401,0.577,3.483,1.144  C87.979,64.023,88.006,67.238,88.861,69.296C89.188,70.083,88.521,68.479,88.861,69.296z M87.5,55.11  c-1.075,0.781-1.814,1.707-3.232,1.678c-0.669-0.014-1.334-0.083-2.004-0.066c-0.745,0.019-1.516,0.145-2.257,0.024  c-0.381-0.218-0.775-0.435-1.185-0.642c-0.703-0.556-1.384-1.108-2.141-1.591c-0.853-0.544-1.428-0.984-1.719-1.98  c-0.29-0.992-0.565-1.955-0.94-2.922c-0.381-0.981-0.381-1.662,0-2.644c0.375-0.966,0.65-1.929,0.94-2.921  c0.291-0.995,0.864-1.435,1.715-1.979c0.789-0.501,1.487-1.084,2.223-1.656c0.814-0.633,1.537-0.652,2.541-0.594  c1.046,0.062,2.081-0.044,3.125-0.028c0.972,0.015,1.584,0.599,2.303,1.188c0.726,0.594,1.539,1.043,2.29,1.599  c0.789,0.584,0.947,1.431,1.187,2.335c0.262,0.985,0.747,1.901,0.986,2.888c0.232,0.959-0.33,1.893-0.649,2.768  c-0.322,0.885-0.415,1.892-0.857,2.728C89.379,54.141,88.244,54.57,87.5,55.11C87.216,55.316,87.786,54.902,87.5,55.11z   M82.538,42.064c-3.395,0-6.237,2.837-6.237,6.226c0,3.389,2.842,6.227,6.237,6.227c3.395,0,6.237-2.838,6.237-6.227  C88.775,44.901,85.932,42.064,82.538,42.064z M82.538,50.921c-3.398,0-3.398-5.262,0-5.262S85.936,50.921,82.538,50.921z   M81.088,29.928c3.998,0,7.346-3.342,7.346-7.334c0-3.992-3.347-7.333-7.346-7.333s-7.346,3.342-7.346,7.333  C73.742,26.586,77.089,29.928,81.088,29.928z M81.088,18.857c2.038,0,3.744,1.703,3.744,3.738c0,2.035-1.706,3.738-3.744,3.738  c-2.038,0-3.744-1.704-3.744-3.738C77.344,20.56,79.05,18.857,81.088,18.857z M47.245,76.333c-3.395,0-6.237,2.837-6.237,6.226  c0,3.389,2.842,6.226,6.237,6.226c3.395,0,6.237-2.837,6.237-6.226C53.482,79.17,50.64,76.333,47.245,76.333z M47.245,85.19  c-3.398,0-3.398-5.262,0-5.262C50.643,79.929,50.643,85.19,47.245,85.19z M23.063,73.779c-3.998,0-7.346,3.342-7.346,7.333  s3.347,7.333,7.346,7.333s7.346-3.342,7.346-7.333S27.061,73.779,23.063,73.779z M23.063,84.85c-2.038,0-3.744-1.703-3.744-3.738  s1.706-3.738,3.744-3.738s3.744,1.703,3.744,3.738S25.101,84.85,23.063,84.85z"/>
</svg>